<svg width="25" height="25" viewBox="0 0 25 25" fill="none" xmlns="http://www.w3.org/2000/svg">
<path d="M7.8125 7.8125V4.6875C7.81251 4.13895 7.95692 3.60007 8.2312 3.12502C8.50548 2.64998 8.89998 2.25549 9.37503 1.98123C9.85009 1.70696 10.389 1.56257 10.9375 1.56258C11.4861 1.56258 12.0249 1.70697 12.5 1.98125C12.9751 1.70697 13.5139 1.56258 14.0625 1.56258C14.611 1.56257 15.1499 1.70696 15.625 1.98123C16.1 2.25549 16.4945 2.64998 16.7688 3.12502C17.0431 3.60007 17.1875 4.13895 17.1875 4.6875V7.8125H17.9688C18.5904 7.8125 19.1865 8.05943 19.626 8.49897C20.0656 8.9385 20.3125 9.53465 20.3125 10.1562V20.3125C20.3125 21.0688 20.0383 21.7994 19.5406 22.3689C19.043 22.9383 18.3557 23.308 17.6062 23.4094C17.0542 23.3229 16.5512 23.0421 16.1879 22.6175C15.8246 22.1929 15.625 21.6525 15.625 21.0937V4.6875C15.6252 4.44893 15.5707 4.21349 15.4658 3.99923C15.3609 3.78497 15.2083 3.59758 15.0198 3.45141C14.8313 3.30525 14.6117 3.20421 14.3781 3.15602C14.1444 3.10784 13.9029 3.11379 13.6719 3.17343C13.9219 3.62187 14.0625 4.13906 14.0625 4.6875V21.0937C14.0625 21.9734 14.3531 22.7844 14.8438 23.4375H7.8125C6.9837 23.4375 6.18884 23.1083 5.60279 22.5222C5.01674 21.9362 4.6875 21.1413 4.6875 20.3125V10.1562C4.6875 9.53465 4.93443 8.9385 5.37397 8.49897C5.81351 8.05943 6.40965 7.8125 7.03125 7.8125H7.8125ZM9.375 4.6875V7.8125H12.5V4.6875C12.5 4.2731 12.3354 3.87567 12.0424 3.58264C11.7493 3.28962 11.3519 3.125 10.9375 3.125C10.5231 3.125 10.1257 3.28962 9.83265 3.58264C9.53962 3.87567 9.375 4.2731 9.375 4.6875V4.6875Z" fill="#F8F8F8"/>
</svg>
