<svg width="25" height="25" viewBox="0 0 25 25" fill="none" xmlns="http://www.w3.org/2000/svg">
<g clip-path="url(#clip0_60_11)">
<path d="M16.4062 13.2812C16.4062 14.3173 15.9947 15.3108 15.2621 16.0434C14.5296 16.7759 13.536 17.1875 12.5 17.1875C11.464 17.1875 10.4704 16.7759 9.73786 16.0434C9.0053 15.3108 8.59375 14.3173 8.59375 13.2812C8.59375 12.2452 9.0053 11.2517 9.73786 10.5191C10.4704 9.78655 11.464 9.375 12.5 9.375C13.536 9.375 14.5296 9.78655 15.2621 10.5191C15.9947 11.2517 16.4062 12.2452 16.4062 13.2812Z" fill="#F8F8F8"/>
<path d="M3.125 6.25C2.2962 6.25 1.50134 6.57924 0.915291 7.16529C0.32924 7.75134 0 8.5462 0 9.375L0 18.75C0 19.5788 0.32924 20.3737 0.915291 20.9597C1.50134 21.5458 2.2962 21.875 3.125 21.875H21.875C22.7038 21.875 23.4987 21.5458 24.0847 20.9597C24.6708 20.3737 25 19.5788 25 18.75V9.375C25 8.5462 24.6708 7.75134 24.0847 7.16529C23.4987 6.57924 22.7038 6.25 21.875 6.25H20.0438C19.215 6.24982 18.4203 5.92047 17.8344 5.33438L16.5406 4.04062C15.9547 3.45453 15.16 3.12518 14.3313 3.125H10.6687C9.84002 3.12518 9.04529 3.45453 8.45938 4.04062L7.16563 5.33438C6.57971 5.92047 5.78498 6.24982 4.95625 6.25H3.125ZM3.90625 9.375C3.69905 9.375 3.50034 9.29269 3.35382 9.14618C3.20731 8.99966 3.125 8.80095 3.125 8.59375C3.125 8.38655 3.20731 8.18784 3.35382 8.04132C3.50034 7.89481 3.69905 7.8125 3.90625 7.8125C4.11345 7.8125 4.31216 7.89481 4.45868 8.04132C4.60519 8.18784 4.6875 8.38655 4.6875 8.59375C4.6875 8.80095 4.60519 8.99966 4.45868 9.14618C4.31216 9.29269 4.11345 9.375 3.90625 9.375ZM17.9688 13.2812C17.9688 14.7317 17.3926 16.1227 16.367 17.1482C15.3414 18.1738 13.9504 18.75 12.5 18.75C11.0496 18.75 9.6586 18.1738 8.63301 17.1482C7.60742 16.1227 7.03125 14.7317 7.03125 13.2812C7.03125 11.8308 7.60742 10.4398 8.63301 9.41426C9.6586 8.38867 11.0496 7.8125 12.5 7.8125C13.9504 7.8125 15.3414 8.38867 16.367 9.41426C17.3926 10.4398 17.9688 11.8308 17.9688 13.2812Z" fill="#F8F8F8"/>
</g>
<defs>
<clipPath id="clip0_60_11">
<rect width="25" height="25" fill="white"/>
</clipPath>
</defs>
</svg>
