<svg width="25" height="25" viewBox="0 0 25 25" fill="none" xmlns="http://www.w3.org/2000/svg">
<path d="M12.5002 0C8.4125 0 5.0625 3.34 5.0625 7.4165C5.0625 8.996 5.567 10.464 6.42075 11.6705L11.5925 20.6112C12.3167 21.5575 12.7982 21.3777 13.4005 20.5612L19.105 10.8537C19.22 10.6452 19.3105 10.4232 19.3892 10.1965C19.7512 9.31437 19.9374 8.37001 19.9372 7.4165C19.9375 3.34 16.5885 0 12.5002 0ZM12.5002 3.475C14.7017 3.475 16.4522 5.2215 16.4522 7.4165C16.4522 9.6115 14.7017 11.3572 12.5002 11.3572C10.299 11.3572 8.54775 9.61175 8.54775 7.4165C8.54775 5.2215 10.299 3.47525 12.5002 3.47525V3.475Z" fill="#F8F8F8"/>
<path d="M17.2283 12.227L17.2162 12.2585C17.22 12.249 17.223 12.2392 17.2267 12.2297L17.2283 12.227ZM8.5015 17.2642C4.97 17.7632 2.5 18.957 2.5 20.7142C2.5 23.0812 6.627 25 12.5 25C18.373 25 22.5 23.0812 22.5 20.7142C22.5 18.957 20.0303 17.7632 16.499 17.2642L16.0098 18.0972C18.6712 18.4665 20.5 19.2425 20.5 20.143C20.5 21.4055 16.9183 22.4287 12.5 22.4287C8.08175 22.4287 4.5 21.4055 4.5 20.143C4.49975 19.2455 6.3165 18.4702 8.98625 18.0995C8.825 17.821 8.66275 17.543 8.50125 17.2642H8.5015Z" fill="#F8F8F8"/>
</svg>
