<svg width="99" height="39" viewBox="0 0 99 39" fill="none" xmlns="http://www.w3.org/2000/svg">
<path d="M5.694 29V14.882H0.104V10.8H16.406V14.882H10.842V29H5.694ZM23.0559 16.988C23.6279 16.156 24.3212 15.4973 25.1359 15.012C25.9506 14.5267 26.8259 14.284 27.7619 14.284V19.718H26.3319C25.2226 19.718 24.3992 19.9347 23.8619 20.368C23.3246 20.8013 23.0559 21.5553 23.0559 22.63V29H17.9599V14.414H23.0559V16.988ZM28.7568 21.694C28.7568 20.186 29.0255 18.8687 29.5628 17.742C30.1175 16.6153 30.8628 15.7487 31.7988 15.142C32.7521 14.5353 33.8095 14.232 34.9708 14.232C35.9761 14.232 36.8428 14.4313 37.5708 14.83C38.2988 15.2287 38.8621 15.766 39.2608 16.442V14.414H44.3568V29H39.2608V26.972C38.8621 27.648 38.2901 28.1853 37.5448 28.584C36.8168 28.9827 35.9588 29.182 34.9708 29.182C33.8095 29.182 32.7521 28.8787 31.7988 28.272C30.8628 27.6653 30.1175 26.7987 29.5628 25.672C29.0255 24.528 28.7568 23.202 28.7568 21.694ZM39.2608 21.694C39.2608 20.758 39.0008 20.0213 38.4808 19.484C37.9781 18.9467 37.3541 18.678 36.6088 18.678C35.8461 18.678 35.2135 18.9467 34.7108 19.484C34.2081 20.004 33.9568 20.7407 33.9568 21.694C33.9568 22.63 34.2081 23.3753 34.7108 23.93C35.2135 24.4673 35.8461 24.736 36.6088 24.736C37.3541 24.736 37.9781 24.4673 38.4808 23.93C39.0008 23.3927 39.2608 22.6473 39.2608 21.694ZM54.2547 24.19L56.9847 14.414H62.4187L57.4007 29H51.0567L46.0387 14.414H51.4727L54.2547 24.19ZM78.0815 21.538C78.0815 21.9367 78.0555 22.3353 78.0035 22.734H68.3575C68.4095 23.5313 68.6261 24.1293 69.0075 24.528C69.4061 24.9093 69.9088 25.1 70.5155 25.1C71.3648 25.1 71.9715 24.7187 72.3355 23.956H77.7695C77.5441 24.9613 77.1021 25.8627 76.4435 26.66C75.8021 27.44 74.9875 28.0553 73.9995 28.506C73.0115 28.9567 71.9195 29.182 70.7235 29.182C69.2848 29.182 68.0021 28.8787 66.8755 28.272C65.7661 27.6653 64.8908 26.7987 64.2495 25.672C63.6255 24.5453 63.3135 23.2193 63.3135 21.694C63.3135 20.1687 63.6255 18.8513 64.2495 17.742C64.8735 16.6153 65.7401 15.7487 66.8495 15.142C67.9761 14.5353 69.2675 14.232 70.7235 14.232C72.1621 14.232 73.4361 14.5267 74.5455 15.116C75.6548 15.7053 76.5215 16.5547 77.1455 17.664C77.7695 18.756 78.0815 20.0473 78.0815 21.538ZM72.8815 20.264C72.8815 19.64 72.6735 19.1547 72.2575 18.808C71.8415 18.444 71.3215 18.262 70.6975 18.262C70.0735 18.262 69.5621 18.4353 69.1635 18.782C68.7648 19.1113 68.5048 19.6053 68.3835 20.264H72.8815ZM85.2629 9.76V29H80.1669V9.76H85.2629ZM90.635 29.208C89.7337 29.208 89.0057 28.9653 88.451 28.48C87.9137 27.9773 87.645 27.3447 87.645 26.582C87.645 25.8193 87.9137 25.1867 88.451 24.684C89.0057 24.1813 89.7337 23.93 90.635 23.93C91.519 23.93 92.2297 24.1813 92.767 24.684C93.3217 25.1867 93.599 25.8193 93.599 26.582C93.599 27.3273 93.3217 27.9513 92.767 28.454C92.2297 28.9567 91.519 29.208 90.635 29.208Z" fill="#040404"/>
<path fill-rule="evenodd" clip-rule="evenodd" d="M90.0857 15.8045C90.3233 15.0723 90.7671 14.4242 91.3639 13.938C91.9607 13.4518 92.6851 13.1481 93.4502 13.0634C94.2153 12.9787 94.9885 13.1165 95.6772 13.4604C96.3659 13.8043 96.9408 14.3396 97.3328 15.002C97.7248 15.6645 97.9174 16.426 97.8873 17.1952C97.8573 17.9644 97.6059 18.7086 97.1634 19.3385C96.7209 19.9683 96.1061 20.4572 95.3926 20.7463C94.6792 21.0354 93.8975 21.1125 93.1414 20.9683L91.4347 26.2294C91.3938 26.3556 91.3044 26.4603 91.1863 26.5205C91.0682 26.5808 90.9309 26.5917 90.8048 26.5508C90.6787 26.5098 90.5739 26.4205 90.5137 26.3024C90.4534 26.1842 90.4426 26.047 90.4835 25.9209L92.1899 20.6607C91.3076 20.2464 90.607 19.5243 90.2196 18.6299C89.8322 17.7355 89.7844 16.7314 90.0857 15.8045Z" fill="#00CFC9"/>
</svg>
